<?xml version="1.0" encoding="utf-8"?>
<!-- Generator: Adobe Illustrator 25.0.0, SVG Export Plug-In . SVG Version: 6.00 Build 0)  -->
<svg version="1.1" id="Capa_1" xmlns="http://www.w3.org/2000/svg" xmlns:xlink="http://www.w3.org/1999/xlink" x="0px" y="0px"
	 viewBox="0 0 44.2 42.1" style="enable-background:new 0 0 44.2 42.1;" xml:space="preserve">
<style type="text/css">
	.st0{fill:none;stroke:#FFFFFF;stroke-width:2.2;stroke-miterlimit:10;}
</style>
<g id="Capa_2_1_">
	<g id="OBJECTS">
		<path class="st0" d="M2.2,14.3h7.4c0.2,0,0.4,0.2,0.4,0.4v25.7c0,0.2-0.2,0.5-0.4,0.5c0,0,0,0,0,0H2.2c-0.2,0-0.4-0.2-0.4-0.4
			V14.8C1.8,14.5,2,14.3,2.2,14.3z M5.9,1.1c2.7,0,4.8,2.2,4.8,4.8c0,0,0,0,0,0c-0.1,2.7-2.2,4.8-4.9,4.8c-2.7,0-4.8-2.2-4.8-4.8
			S3.3,1.1,5.9,1.1C5.9,1.1,5.9,1.1,5.9,1.1"/>
		<path class="st0" d="M17.7,14.3h7c0.2,0,0.4,0.2,0.4,0.4c0,0-0.6,2.6,0,3.2h0.1c1.6-2.8,4.6-4.4,7.8-4.3c8.4,0,9.9,5.5,9.9,12.7
			v14.2c0,0.2-0.2,0.4-0.5,0.4h-7.4c-0.2,0-0.4-0.2-0.5-0.4V28c0-3.1-0.1-7.1-4.3-7.1s-5,3.4-5,6.8v12.8c0,0.2-0.2,0.4-0.5,0.4h-7.3
			c-0.2,0-0.4-0.2-0.5-0.4V14.8C17.3,14.5,17.5,14.3,17.7,14.3L17.7,14.3z"/>
	</g>
</g>
</svg>
