<?xml version="1.0" encoding="utf-8"?>
<!-- Generator: Adobe Illustrator 25.0.0, SVG Export Plug-In . SVG Version: 6.00 Build 0)  -->
<svg version="1.1" id="Capa_1" xmlns="http://www.w3.org/2000/svg" xmlns:xlink="http://www.w3.org/1999/xlink" x="0px" y="0px"
	 viewBox="0 0 47.3 47.7" style="enable-background:new 0 0 47.3 47.7;" xml:space="preserve">
<style type="text/css">
	.st0{fill:none;stroke:#FFFFFF;stroke-width:2.31;stroke-miterlimit:10;}
</style>
<g id="Capa_2_1_">
	<g id="OBJECTS">
		<path class="st0" d="M34.4,28.4c-0.6-0.3-3.3-1.8-3.8-2s-0.9-0.3-1.3,0.2s-1.5,1.8-1.9,2.1s-0.7,0.4-1.2,0.1
			c-1.6-0.7-3.1-1.8-4.4-3c-1.2-1.2-2.2-2.5-3-4c-0.3-0.6,0-0.9,0.3-1.1s0.6-0.6,0.9-1c0.2-0.3,0.4-0.6,0.6-0.9c0.2-0.3,0.2-0.7,0-1
			c-0.1-0.3-1.1-3.1-1.6-4.3s-0.9-1-1.2-1s-0.7-0.1-1.1-0.1c-0.6,0-1.1,0.2-1.5,0.6c-1.3,1.2-2.1,2.9-2.2,4.6
			c-0.1,2.8,1.8,5.5,2.1,5.9s3.7,6.4,9.3,8.9s5.7,1.7,6.7,1.7s3.4-1.2,3.9-2.5c0.4-0.8,0.5-1.8,0.4-2.7
			C35.3,28.8,34.9,28.7,34.4,28.4L34.4,28.4z M24,1.2c-12.2,0-22.2,9.9-22.2,22.2c0,3.8,1,7.4,2.8,10.7c0.3,0.4,0.3,1,0.2,1.5
			L1.2,46.1c-0.1,0.1,0,0.3,0.2,0.3c0.1,0,0.1,0,0.2,0l11.2-3.6c0.4-0.1,0.8-0.1,1.1,0.1c10.9,5.6,24.3,1.3,29.9-9.5
			S45,9.2,34.1,3.6C31,2,27.5,1.2,24,1.2z"/>
	</g>
</g>
</svg>
