<?xml version="1.0" encoding="utf-8"?>
<!-- Generator: Adobe Illustrator 25.0.0, SVG Export Plug-In . SVG Version: 6.00 Build 0)  -->
<svg version="1.1" id="Capa_1" xmlns="http://www.w3.org/2000/svg" xmlns:xlink="http://www.w3.org/1999/xlink" x="0px" y="0px"
	 viewBox="0 0 48.2 29.9" style="enable-background:new 0 0 48.2 29.9;" xml:space="preserve">
<style type="text/css">
	.st0{fill:none;stroke:#FFFFFF;stroke-width:2.2;stroke-miterlimit:10;}
	.st1{fill:none;stroke:#FFFFFF;stroke-width:2.2;stroke-linecap:round;stroke-linejoin:round;}
</style>
<g id="Capa_2_1_">
	<g id="OBJECTS">
		<path class="st0" d="M17.1,27.7c2.1-0.4,3.9-1.7,5-3.5c0.8-1.3,1.2-2.8,1.2-4.3c0.1-1.4-0.3-2.8-1-4c-0.5-0.8-1.2-1.4-2-1.9
			c-0.3-0.1-0.5-0.5-0.3-0.8c0-0.1,0.1-0.2,0.2-0.2c0.4-0.3,0.8-0.6,1.1-1c0.9-1.1,1.3-2.6,1.2-4c0-1.4-0.4-2.8-1.2-4
			c-1.4-1.9-3.7-2.8-7-2.9H1.7c-0.3,0-0.6,0.3-0.6,0.6v25.7c0,0.3,0.3,0.6,0.6,0.6h11.5C14.6,28.1,15.8,28,17.1,27.7z M6.5,6.4
			c0-0.3,0.3-0.6,0.6-0.6h5.3c1.1,0,2.2,0.1,3.2,0.4c1,0.4,1.6,1.4,1.4,2.5c0.1,0.9-0.3,1.8-1.1,2.4C15,11.6,14,11.8,13,11.7H7.1
			c-0.3,0-0.6-0.3-0.6-0.6L6.5,6.4z M6.5,22.8v-5.9c0-0.3,0.3-0.6,0.6-0.6h6c0.9,0,1.8,0.1,2.7,0.5c1.1,0.5,1.8,1.7,1.7,2.9
			c0.2,1.4-0.6,2.7-1.8,3.4c-0.9,0.4-1.8,0.5-2.7,0.5H7.1C6.8,23.4,6.5,23.1,6.5,22.8z"/>
		<path class="st1" d="M30.3,26.3c2,1.6,4.5,2.5,7,2.5c2.8,0.2,5.5-0.9,7.5-2.9c0.8-0.8,1.4-1.8,1.8-2.8c0.1-0.3-0.1-0.7-0.4-0.8
			c-0.1,0-0.1,0-0.2,0h-4.2c-0.2,0-0.4,0.1-0.5,0.3c-0.2,0.4-0.5,0.8-0.9,1.1c-0.8,0.6-1.9,1-2.9,0.9c-1,0-2-0.2-2.9-0.8
			c-1.2-0.8-1.9-2.1-2-3.5c-0.1-0.3,0.2-0.7,0.5-0.7c0,0,0.1,0,0.1,0h13.2c0.3,0,0.6-0.3,0.6-0.6c0-1.1,0-2.2-0.2-3.3
			c-0.2-1.5-0.7-2.9-1.6-4.1c-0.8-1.3-2-2.4-3.5-3c-1.5-0.6-3.1-1-4.7-0.9c-2.7-0.1-5.3,0.9-7.2,2.8c-1.8,1.8-2.8,4.5-2.8,7.9
			C27.3,22,28.3,24.7,30.3,26.3z M34.1,13c0.8-0.8,2-1.2,3.1-1.1c1.1,0,2.2,0.4,3.1,1.1c0.7,0.6,1.2,1.5,1.3,2.4
			c0.1,0.3-0.2,0.7-0.5,0.7c0,0-0.1,0-0.1,0h-7.5c-0.4,0-0.6-0.3-0.6-0.6c0-0.1,0-0.1,0-0.2C33,14.5,33.5,13.7,34.1,13z"/>
		<path class="st0" d="M31.6,1.8h10.5c0.3,0,0.6,0.3,0.6,0.6v1.5c0,0.3-0.3,0.6-0.6,0.6H31.6c-0.3,0-0.6-0.3-0.6-0.6V2.4
			C31,2.1,31.3,1.8,31.6,1.8z"/>
	</g>
</g>
</svg>
