<?xml version="1.0" encoding="utf-8"?>
<!-- Generator: Adobe Illustrator 25.0.0, SVG Export Plug-In . SVG Version: 6.00 Build 0)  -->
<svg version="1.1" id="Capa_1" xmlns="http://www.w3.org/2000/svg" xmlns:xlink="http://www.w3.org/1999/xlink" x="0px" y="0px"
	 viewBox="0 0 47.5 47.5" style="enable-background:new 0 0 47.5 47.5;" xml:space="preserve">
<style type="text/css">
	.st0{fill:none;stroke:#FFFFFF;stroke-width:2.5;stroke-miterlimit:10;}
</style>
<g id="Capa_2_1_">
	<g id="OBJECTS">
		<path class="st0" d="M35.6,10.3c-1.5,0-2.6,1.2-2.6,2.6s1.2,2.6,2.6,2.6c1.5,0,2.6-1.2,2.6-2.6c0,0,0,0,0,0
			C38.2,11.5,37,10.3,35.6,10.3z"/>
		<path class="st0" d="M23.8,13.7c-5.5,0-10,4.5-10,10s4.5,10,10,10s10-4.5,10-10S29.4,13.7,23.8,13.7z"/>
		<path class="st0" d="M32.7,46.2h-18c-7.4,0-13.5-6.1-13.5-13.5v-18c0-7.4,6.1-13.5,13.5-13.5h18c7.4,0,13.5,6.1,13.5,13.5v18
			C46.2,40.2,40.2,46.2,32.7,46.2z"/>
	</g>
</g>
</svg>
