<svg xmlns="http://www.w3.org/2000/svg" xmlns:xlink="http://www.w3.org/1999/xlink" viewBox="0 0 169.1 160.16"><defs><style>.cls-1{fill:url(#Análogo_3);}.cls-2{fill:url(#Análogo_3-2);}</style><linearGradient id="Análogo_3" y1="113.51" x2="68.37" y2="113.51" gradientUnits="userSpaceOnUse"><stop offset="0" stop-color="#009c8b"/><stop offset="0" stop-color="#3f2d87"/><stop offset="0.51" stop-color="#aa2b87"/><stop offset="1" stop-color="#d51317"/></linearGradient><linearGradient id="Análogo_3-2" x1="29.63" y1="80.03" x2="169.1" y2="80.03" xlink:href="#Análogo_3"/></defs><g id="Capa_2" data-name="Capa 2"><g id="Capa_1-2" data-name="Capa 1"><path class="cls-1" d="M16.67,66.85c4.88,8.8,43.75,78.93,51.7,93.31H51.8L0,66.85H16.67"/><path class="cls-2" d="M129.69,66.73H127.1l1-2.41c7.46-18.4,14.44-35.52,19.54-48C150.59,9,153,3.08,154.24,0H62.41L57.25,13.62H104L103,16,83.09,65.63l-.44,1.1h-53l51.8,93.32h7.89c2.5-6,15.62-38.25,32.1-78.89l.45-1.09H164l5.14-13.34ZM69,100.79,67.69,104l-1.77-3L55,82.72l-1.58-2.65H77.65l-1,2.42Zm16.65,29-1.34,3.32L82.55,130l-5-8.76-.42-.73.31-.79L119.52,14.8l.44-1.09h12.81l-1,2.4Z"/></g></g></svg>